<?xml version="1.0" standalone="no"?>
<!DOCTYPE svg PUBLIC "-//W3C//DTD SVG 20010904//EN"
 "http://www.w3.org/TR/2001/REC-SVG-20010904/DTD/svg10.dtd">
<svg version="1.0" xmlns="http://www.w3.org/2000/svg"
 width="189.000000pt" height="300.000000pt" viewBox="0 0 189.000000 300.000000"
 preserveAspectRatio="xMidYMid meet">
<metadata>
Created by potrace 1.10, written by Peter Selinger 2001-2011
</metadata>
<g transform="translate(0.000000,300.000000) scale(0.100000,-0.100000)"
fill="#000000" stroke="none">
<path d="M1204 2736 c-88 -51 -173 -112 -329 -237 -400 -318 -624 -665 -744
-1150 -37 -150 -51 -264 -51 -427 0 -215 35 -329 149 -479 72 -95 153 -161
267 -214 107 -51 175 -68 318 -79 226 -17 363 19 558 147 105 69 173 150 235
280 72 150 89 236 104 528 8 171 9 284 0 440 -15 293 -44 414 -177 753 -78
197 -87 216 -162 329 -32 49 -67 102 -78 119 l-19 31 -71 -41z m127 -87 c35
-55 72 -114 82 -130 58 -91 213 -524 246 -684 28 -139 41 -432 30 -685 -14
-347 -30 -425 -117 -595 -80 -157 -235 -283 -437 -355 -65 -23 -83 -25 -245
-24 -205 0 -255 10 -400 82 -79 38 -109 60 -180 132 -169 170 -220 319 -207
605 10 208 55 417 131 614 150 386 350 639 756 953 88 68 261 188 271 188 3 0
35 -45 70 -101z"/>
<path d="M1165 2593 c-79 -47 -277 -200 -390 -301 -274 -243 -457 -551 -549
-921 -50 -198 -64 -392 -41 -546 21 -145 71 -242 179 -350 88 -88 168 -136
291 -175 88 -28 312 -39 407 -20 128 25 326 141 400 234 50 62 122 209 143
291 26 101 38 322 32 595 -8 355 -29 456 -164 790 -58 144 -92 213 -156 312
-45 70 -84 127 -87 127 -3 0 -32 -17 -65 -36z m267 -358 c131 -319 163 -438
178 -652 18 -275 7 -631 -24 -766 -25 -105 -99 -249 -165 -316 -63 -65 -198
-149 -294 -183 -85 -29 -278 -37 -397 -14 -133 24 -256 90 -350 185 -143 146
-180 248 -180 490 0 277 63 529 202 804 86 173 247 375 409 513 127 109 281
229 353 275 l59 37 76 -117 c52 -79 95 -162 133 -256z"/>
<path d="M1171 2516 c-14 -17 -7 -36 14 -36 22 0 29 20 13 36 -13 13 -16 13
-27 0z"/>
<path d="M1097 2446 c-8 -20 20 -43 35 -28 14 14 3 42 -16 42 -7 0 -16 -6 -19
-14z"/>
<path d="M1399 1255 c-4 -5 -10 -48 -14 -95 -18 -224 -83 -372 -257 -582 -21
-26 -34 -49 -29 -53 14 -8 113 114 182 224 66 105 105 215 120 343 11 93 10
182 -2 163z"/>
<path d="M1305 680 c-4 -7 -3 -16 3 -22 14 -14 45 -2 40 15 -6 16 -34 21 -43
7z"/>
<path d="M1235 590 c-4 -7 -3 -16 3 -22 14 -14 45 -2 40 15 -6 16 -34 21 -43
7z"/>
<path d="M1320 580 c0 -13 7 -20 20 -20 13 0 20 7 20 20 0 13 -7 20 -20 20
-13 0 -20 -7 -20 -20z"/>
</g>
</svg>
