<?xml version="1.0" standalone="no"?>
<!DOCTYPE svg PUBLIC "-//W3C//DTD SVG 20010904//EN"
 "http://www.w3.org/TR/2001/REC-SVG-20010904/DTD/svg10.dtd">
<svg version="1.0" xmlns="http://www.w3.org/2000/svg"
 width="300.000000pt" height="474.000000pt" viewBox="0 0 300.000000 474.000000"
 preserveAspectRatio="xMidYMid meet">
<metadata>
Created by potrace 1.10, written by Peter Selinger 2001-2011
</metadata>
<g transform="translate(0.000000,474.000000) scale(0.100000,-0.100000)"
fill="#000000" stroke="none">
<path d="M1995 4371 c-6 -5 -53 -32 -104 -61 -195 -108 -627 -446 -831 -650
-182 -183 -359 -401 -474 -584 -77 -122 -227 -451 -285 -621 -65 -194 -123
-417 -114 -440 4 -11 3 -16 -4 -12 -6 4 -16 -38 -26 -111 -62 -446 -34 -792
83 -1009 167 -311 429 -514 782 -608 87 -23 284 -48 300 -38 4 2 24 0 43 -6
21 -5 33 -6 30 0 -4 5 1 9 10 9 9 0 14 -4 11 -9 -4 -5 9 -6 29 -1 21 5 35 4
35 -2 0 -5 3 -7 8 -4 4 2 41 7 82 11 107 8 269 49 353 88 99 46 269 149 342
207 148 118 235 245 341 497 70 167 94 339 115 815 12 281 3 649 -22 878 -27
253 -114 541 -302 1005 -90 222 -102 247 -178 360 -107 160 -156 238 -170 268
-12 27 -36 35 -54 18z m50 -81 c17 -33 33 -60 38 -60 4 0 7 -7 7 -15 0 -8 4
-15 8 -15 5 0 16 -15 25 -32 19 -38 40 -71 48 -78 29 -27 97 -143 134 -232 26
-61 48 -116 49 -122 2 -6 8 -22 14 -36 35 -77 70 -170 65 -170 -3 0 -1 -6 5
-13 17 -20 69 -171 64 -186 -3 -9 0 -11 8 -6 10 6 12 4 7 -8 -4 -10 -2 -17 4
-17 7 0 9 -11 5 -27 -5 -21 -4 -24 4 -13 5 8 10 11 11 5 1 -14 6 -35 17 -71 6
-20 6 -37 -1 -49 -8 -15 -7 -17 7 -12 14 6 16 3 11 -14 -5 -16 -4 -19 6 -14 9
6 11 2 7 -13 -4 -12 -2 -22 4 -22 6 0 8 -11 6 -25 -3 -13 -1 -22 3 -19 5 3 9
1 9 -5 0 -5 -4 -12 -10 -16 -5 -3 -6 -13 -3 -22 6 -15 7 -14 14 3 6 15 8 16 8
2 1 -9 4 -25 7 -35 5 -15 4 -15 -5 -3 -9 12 -11 11 -11 -8 0 -13 4 -21 9 -18
14 9 20 -18 16 -61 -4 -29 -3 -32 3 -13 8 23 9 22 15 -15 4 -26 2 -42 -6 -47
-8 -5 -8 -8 -1 -8 8 0 10 -24 8 -72 -2 -47 -1 -64 5 -48 7 23 8 22 12 -12 3
-21 1 -38 -3 -38 -4 0 -7 -15 -7 -32 l1 -33 9 30 c7 28 6 -51 -4 -153 -2 -29
-1 -31 10 -16 11 15 13 -41 12 -317 0 -184 -3 -329 -5 -324 -2 6 -8 37 -13 70
l-9 60 2 -81 c0 -45 4 -80 9 -77 4 2 7 -34 7 -80 0 -64 -4 -88 -15 -97 -16
-13 -17 -50 -2 -61 5 -4 4 -42 -2 -85 l-10 -79 4 80 3 80 -14 -80 c-10 -54
-12 -81 -5 -83 6 -2 11 -16 10 -30 l-1 -27 -8 25 c-4 14 -8 19 -9 12 -1 -7 -4
-11 -9 -8 -4 2 -6 -14 -3 -37 3 -34 5 -38 12 -22 10 24 0 -48 -12 -85 -6 -18
-7 -12 -4 20 5 44 4 43 -14 -16 -37 -120 -159 -383 -183 -392 -4 -2 -8 -8 -8
-14 0 -6 -32 -47 -71 -92 l-71 -81 70 72 c39 39 91 107 116 149 25 43 46 74
46 69 0 -44 -203 -302 -234 -297 -9 2 -15 -1 -14 -5 2 -4 0 -8 -4 -8 -4 0 -15
-10 -23 -23 -9 -12 -20 -20 -25 -17 -4 3 -11 -2 -14 -11 -3 -8 -11 -12 -16 -9
-13 8 -80 -22 -80 -35 0 -5 17 0 38 12 48 27 29 9 -22 -22 -22 -13 -36 -19
-33 -13 5 7 0 9 -13 6 -11 -3 -20 -11 -20 -18 0 -7 -16 -22 -36 -34 -42 -25
-56 -27 -28 -5 13 11 10 10 -13 -2 -18 -10 -33 -21 -33 -25 0 -9 -85 -45 -140
-59 -25 -6 -53 -14 -64 -17 -11 -3 -16 -1 -12 5 3 6 0 9 -6 8 -7 -2 -35 -7
-63 -11 -43 -7 -46 -10 -25 -16 31 -9 -71 -13 -265 -9 -88 1 -145 6 -154 13
-10 8 -13 8 -8 1 4 -7 -2 -10 -18 -6 -14 2 -25 7 -25 11 0 3 -17 6 -37 6 -52
1 -76 7 -91 25 -8 8 -11 9 -7 3 8 -17 -10 -16 -45 2 -17 9 -30 13 -30 9 0 -4
-6 -2 -12 3 -7 6 -30 16 -51 23 -56 18 -88 36 -79 45 4 4 0 6 -8 3 -8 -3 -28
4 -45 16 -16 11 -30 20 -30 18 0 -2 -8 0 -17 3 -10 4 -15 11 -12 16 3 5 -2 9
-12 9 -28 0 -137 85 -208 162 -144 155 -249 339 -272 478 -2 8 -9 44 -16 80
-25 126 -12 580 22 750 108 546 320 1026 615 1395 234 292 494 527 952 858 92
66 232 157 243 157 3 0 19 -27 35 -60z m622 -1587 c-3 -10 -5 -4 -5 12 0 17 2
24 5 18 2 -7 2 -21 0 -30z m-2480 -765 c-3 -8 -6 -5 -6 6 -1 11 2 17 5 13 3
-3 4 -12 1 -19z m2388 -903 c-15 -36 -29 -64 -31 -62 -2 2 9 33 24 69 15 36
29 64 31 62 2 -2 -8 -33 -24 -69z m-47 -105 c-5 -17 -15 -33 -21 -37 -5 -3 -7
-2 -4 4 4 6 11 22 16 37 14 36 22 33 9 -4z m-835 -647 c-7 -2 -21 -2 -30 0
-10 3 -4 5 12 5 17 0 24 -2 18 -5z"/>
<path d="M1956 4255 c-32 -28 -32 -30 4 -39 14 -3 19 -3 13 0 -18 8 -16 24 4
46 23 26 13 22 -21 -7z"/>
<path d="M1855 4200 c-10 -11 -16 -22 -14 -24 2 -2 12 7 22 20 22 29 17 32 -8
4z"/>
<path d="M2040 4201 c0 -6 5 -11 10 -11 6 0 10 -7 10 -15 0 -8 5 -15 10 -15 7
0 7 6 0 19 -12 24 -30 36 -30 22z"/>
<path d="M2046 4128 c36 -73 54 -101 40 -63 -5 11 -9 25 -10 31 -1 6 -13 32
-26 58 -40 75 -43 52 -4 -26z"/>
<path d="M1930 4182 c0 -4 5 -13 10 -18 8 -8 6 -15 -5 -24 -13 -11 -15 -10
-10 2 3 8 -1 21 -10 28 -9 8 -15 8 -15 2 0 -6 4 -13 10 -17 12 -8 2 -32 -16
-39 -12 -5 -14 -1 -9 15 5 15 4 19 -4 15 -6 -4 -11 -16 -11 -26 0 -11 -10 -24
-21 -31 -15 -8 -19 -8 -15 0 11 17 -3 13 -40 -10 -42 -26 -45 -35 -4 -14 41
21 38 12 -5 -14 -19 -11 -35 -16 -35 -11 0 14 -63 -23 -68 -40 -4 -12 -1 -12
14 1 24 20 44 32 44 26 0 -3 -24 -22 -52 -43 -35 -24 -46 -29 -33 -14 l20 23
-30 -17 c-16 -10 -55 -40 -85 -68 l-55 -50 50 38 c28 20 56 42 63 47 6 5 12 7
12 5 0 -11 -121 -99 -129 -94 -5 3 -14 -1 -21 -9 -7 -8 -15 -13 -19 -11 -3 2
-15 -8 -26 -23 -18 -24 -16 -23 25 8 l45 33 -45 -40 c-30 -27 -47 -37 -52 -29
-5 8 -8 7 -8 -4 0 -9 -8 -23 -17 -30 -17 -13 -17 -13 -3 5 13 17 13 19 0 14
-8 -2 -16 -13 -18 -24 -2 -10 -15 -28 -30 -38 l-27 -19 24 26 c14 15 20 27 14
27 -6 0 -20 -15 -32 -32 -26 -42 -116 -129 -107 -104 5 16 4 17 -9 6 -8 -7
-13 -15 -10 -19 2 -4 -32 -43 -77 -87 -44 -43 -77 -72 -73 -64 4 8 -8 -1 -28
-19 -21 -19 -37 -40 -37 -45 0 -6 5 -4 10 4 5 8 10 10 10 4 0 -6 -12 -21 -27
-35 -25 -22 -26 -22 -9 -1 11 12 16 22 12 22 -9 0 -45 -42 -46 -53 0 -5 6 -5
12 -1 7 5 -5 -13 -26 -39 -21 -26 -41 -47 -43 -47 -6 0 10 23 41 58 11 12 15
22 10 22 -16 0 -58 -62 -57 -83 1 -13 -3 -17 -14 -13 -11 5 -14 2 -9 -10 4
-10 0 -18 -13 -21 -11 -3 -27 -16 -36 -29 -20 -30 -10 -31 16 -1 17 19 19 19
10 2 -5 -11 -22 -33 -36 -50 -23 -27 -25 -27 -14 -5 11 23 11 24 -5 11 -9 -8
-16 -21 -14 -30 3 -15 -38 -91 -48 -91 -6 0 -1 9 28 55 18 28 18 28 -11 -4
-17 -19 -29 -44 -28 -55 1 -12 -3 -20 -10 -19 -6 1 -14 -4 -17 -13 -4 -10 -2
-13 7 -8 6 4 0 -4 -15 -19 -16 -14 -28 -30 -28 -34 0 -4 7 1 15 11 8 11 15 16
15 10 -1 -14 -26 -44 -32 -38 -3 2 -8 -2 -12 -11 -4 -11 -2 -14 7 -9 6 4 4 -2
-6 -13 -9 -11 -14 -23 -10 -26 3 -4 1 -7 -5 -7 -6 0 -9 -6 -6 -14 3 -7 -8 -28
-23 -47 -15 -18 -22 -30 -16 -26 9 6 11 3 7 -7 -3 -9 -10 -16 -15 -16 -4 0 -6
-7 -3 -15 4 -8 -1 -17 -9 -21 -9 -3 -13 -12 -10 -21 4 -11 2 -14 -5 -9 -8 5
-10 2 -6 -8 3 -9 1 -16 -5 -16 -6 0 -8 -7 -4 -15 3 -10 1 -15 -7 -13 -7 2 -15
-3 -18 -11 -3 -8 0 -11 7 -7 7 5 9 1 5 -8 -3 -9 -10 -16 -15 -16 -5 0 -8 -3
-8 -7 1 -5 0 -12 -1 -18 -1 -5 -3 -14 -5 -20 -1 -5 -3 -19 -4 -30 -1 -17 -3
-18 -12 -5 -8 12 -9 11 -4 -6 7 -25 -3 -56 -16 -48 -5 3 -8 2 -7 -3 1 -4 -3
-19 -10 -33 -13 -24 -13 -24 3 -5 17 20 17 19 10 -5 -4 -14 -10 -27 -14 -30
-3 -3 -7 -18 -9 -35 -2 -16 -8 -34 -13 -40 -7 -7 -8 -3 -4 10 6 16 5 17 -4 5
-6 -9 -7 -18 -1 -24 6 -6 10 -15 10 -20 0 -6 -5 -4 -11 4 -8 12 -9 9 -5 -11 4
-18 0 -31 -10 -39 -10 -9 -13 -22 -8 -43 3 -17 2 -27 -3 -24 -5 3 -8 -8 -5
-26 2 -22 0 -28 -6 -19 -7 11 -10 11 -15 -2 -4 -9 -2 -16 3 -16 5 0 8 -9 7
-19 0 -11 -6 -19 -12 -18 -5 1 -11 -11 -12 -28 -2 -25 -1 -27 7 -10 10 22 13
6 4 -19 -3 -9 -11 -13 -16 -10 -6 4 -9 -10 -7 -37 4 -64 0 -91 -10 -84 -6 3
-6 -7 0 -27 12 -42 11 -146 -1 -108 -5 14 -7 -54 -6 -157 0 -101 5 -183 9
-183 5 0 7 -8 6 -17 -1 -10 1 -26 6 -36 4 -9 5 -26 2 -37 -3 -11 -1 -20 5 -20
6 0 8 -12 5 -26 -2 -15 2 -38 9 -53 8 -14 23 -51 34 -82 45 -125 184 -310 305
-406 141 -112 339 -200 515 -229 216 -36 427 -28 604 22 100 28 150 52 281
132 207 126 292 217 395 427 108 220 127 309 144 690 13 277 12 461 -4 750
-22 375 -70 556 -299 1112 -64 155 -92 212 -150 297 -95 141 -181 277 -181
287 0 6 5 7 12 3 7 -4 8 -3 4 5 -4 6 -12 9 -17 6 -5 -4 -9 -1 -9 4 0 6 -4 11
-10 11 -5 0 -10 -4 -10 -8z m36 -94 c9 -18 57 -94 107 -168 103 -154 132 -213
251 -509 113 -280 176 -486 210 -681 46 -263 47 -1097 1 -1360 -21 -120 -44
-188 -115 -335 -61 -127 -138 -234 -213 -297 -49 -40 -224 -151 -304 -192
-214 -108 -604 -124 -873 -36 -233 76 -393 190 -534 380 -102 137 -139 226
-172 414 -20 119 -15 427 11 596 46 301 157 636 316 952 137 272 431 615 749
874 204 166 518 394 542 394 4 0 15 -15 24 -32z m-946 -683 c-7 -9 -15 -13
-19 -10 -3 3 1 10 9 15 21 14 24 12 10 -5z m-713 -1497 c-3 -8 -6 -5 -6 6 -1
11 2 17 5 13 3 -3 4 -12 1 -19z"/>
<path d="M1860 3975 c-19 -23 -8 -50 22 -53 19 -2 28 2 33 18 12 39 -29 66
-55 35z"/>
<path d="M1758 3879 c-39 -22 -8 -81 31 -59 25 13 27 33 5 54 -8 9 -16 16 -17
16 -1 0 -10 -5 -19 -11z"/>
<path d="M2218 1980 c-4 -8 -14 -89 -23 -180 -31 -313 -85 -453 -277 -723 -48
-67 -110 -146 -137 -176 -49 -52 -55 -71 -26 -71 34 0 277 331 349 477 51 101
95 241 112 356 14 96 16 348 2 317z"/>
<path d="M2071 1076 c-22 -26 10 -63 43 -50 35 13 24 64 -14 64 -10 0 -23 -6
-29 -14z"/>
<path d="M1961 931 c-8 -14 -6 -23 9 -36 33 -29 78 7 50 40 -17 21 -47 19 -59
-4z"/>
<path d="M2101 936 c-26 -31 14 -71 45 -45 21 17 14 53 -12 57 -11 2 -26 -4
-33 -12z"/>
<path d="M1785 4133 c-33 -14 -70 -33 -82 -43 -49 -38 -95 -81 -91 -85 2 -3
19 9 37 25 18 17 34 30 37 30 2 0 23 12 47 27 23 15 62 37 87 49 62 31 38 29
-35 -3z"/>
<path d="M1625 4060 c-3 -5 -1 -10 4 -10 6 0 11 5 11 10 0 6 -2 10 -4 10 -3 0
-8 -4 -11 -10z"/>
<path d="M1527 3950 c-66 -72 -79 -93 -26 -44 30 29 68 59 84 67 l30 15 -28
-1 c-18 -1 -40 -14 -60 -37z"/>
<path d="M1426 3911 c-4 -7 -5 -15 -2 -18 9 -9 19 4 14 18 -4 11 -6 11 -12 0z"/>
<path d="M1396 3864 c-5 -14 -4 -15 9 -4 17 14 19 20 6 20 -5 0 -12 -7 -15
-16z"/>
<path d="M1365 3860 c-3 -5 -1 -10 4 -10 6 0 11 5 11 10 0 6 -2 10 -4 10 -3 0
-8 -4 -11 -10z"/>
<path d="M1353 3816 c3 -7 0 -19 -6 -25 -6 -6 -7 -11 -1 -11 12 0 35 36 27 44
-12 11 -25 6 -20 -8z"/>
<path d="M2262 3789 c6 -16 12 -28 14 -26 5 5 -13 57 -20 57 -3 0 0 -14 6 -31z"/>
<path d="M1290 3757 c-20 -17 -54 -57 -48 -57 3 0 21 16 41 35 34 33 39 48 7
22z"/>
<path d="M1249 3659 l-34 -31 32 21 c18 12 35 26 38 31 11 18 -2 10 -36 -21z"/>
<path d="M1046 3543 c-24 -26 -43 -49 -42 -51 4 -4 66 55 85 81 25 32 3 17
-43 -30z"/>
<path d="M1111 3530 c-13 -16 -27 -28 -31 -25 -4 2 -18 -8 -31 -23 -13 -14
-17 -21 -8 -14 9 6 18 10 21 7 2 -2 24 16 48 40 24 25 40 45 35 45 -6 0 -21
-14 -34 -30z"/>
<path d="M985 3452 c-11 -9 -27 -26 -35 -37 -8 -11 3 -4 23 14 33 31 42 42 35
41 -2 -1 -12 -8 -23 -18z"/>
<path d="M885 3353 c-20 -27 -61 -78 -80 -99 -5 -6 -16 -10 -25 -9 -8 1 -10 0
-3 -2 18 -6 -6 -41 -26 -38 -9 1 -10 0 -3 -2 7 -3 10 -10 6 -16 -9 -20 65 64
113 126 24 33 43 61 41 63 -2 2 -13 -9 -23 -23z"/>
<path d="M2527 3223 c-4 -3 -7 -13 -7 -22 1 -13 3 -13 11 2 11 19 8 33 -4 20z"/>
<path d="M714 3158 l-19 -23 23 19 c21 18 27 26 19 26 -2 0 -12 -10 -23 -22z"/>
<path d="M2538 3163 c7 -3 16 -2 19 1 4 3 -2 6 -13 5 -11 0 -14 -3 -6 -6z"/>
<path d="M2520 3101 c0 -17 4 -32 8 -35 4 -2 6 11 4 30 -5 42 -12 45 -12 5z"/>
<path d="M2550 3021 c0 -6 4 -13 10 -16 6 -3 7 1 4 9 -7 18 -14 21 -14 7z"/>
<path d="M630 2985 c-7 -9 -8 -15 -2 -15 5 0 12 7 16 15 3 8 4 15 2 15 -2 0
-9 -7 -16 -15z"/>
<path d="M588 2945 c-21 -27 -23 -45 -6 -45 6 0 8 3 5 7 -4 3 2 17 14 29 11
12 17 24 12 27 -4 3 -16 -6 -25 -18z"/>
<path d="M2590 2889 c0 -13 5 -31 10 -39 7 -11 8 -5 4 20 -8 43 -14 51 -14 19z"/>
<path d="M526 2805 c-9 -26 -7 -32 5 -12 6 10 9 21 6 23 -2 3 -7 -2 -11 -11z"/>
<path d="M2603 2785 c0 -22 2 -30 4 -17 2 12 2 30 0 40 -3 9 -5 -1 -4 -23z"/>
<path d="M2635 2810 c3 -5 8 -10 11 -10 2 0 4 5 4 10 0 6 -5 10 -11 10 -5 0
-7 -4 -4 -10z"/>
<path d="M496 2735 c-22 -52 -19 -58 5 -12 11 22 18 41 15 44 -3 3 -12 -12
-20 -32z"/>
<path d="M465 2659 c-6 -17 -9 -19 -17 -8 -7 10 -8 7 -5 -11 6 -29 -4 -62 -18
-60 -5 1 -11 -4 -13 -12 -2 -9 0 -8 7 2 9 13 11 13 11 -2 0 -10 -6 -18 -13
-18 -7 0 -13 -8 -13 -17 -1 -10 -4 -31 -8 -48 -5 -23 -1 -20 15 15 28 58 70
173 65 178 -2 2 -7 -6 -11 -19z"/>
<path d="M2662 2505 c0 -16 2 -22 5 -12 2 9 2 23 0 30 -3 6 -5 -1 -5 -18z"/>
<path d="M381 2434 c0 -11 3 -14 6 -6 3 7 2 16 -1 19 -3 4 -6 -2 -5 -13z"/>
<path d="M2660 2280 c0 -57 2 -101 5 -99 7 7 8 189 1 196 -3 4 -6 -40 -6 -97z"/>
<path d="M329 2268 c-33 -87 -33 -89 -6 -38 23 42 42 100 34 100 -3 0 -15 -28
-28 -62z"/>
<path d="M2663 2045 c0 -33 2 -45 4 -27 2 18 2 45 0 60 -2 15 -4 0 -4 -33z"/>
<path d="M275 2050 c-3 -5 -1 -10 4 -10 6 0 11 5 11 10 0 6 -2 10 -4 10 -3 0
-8 -4 -11 -10z"/>
<path d="M271 2023 c-1 -6 -4 -20 -7 -30 -5 -17 -5 -17 6 0 6 10 9 23 6 30 -3
9 -5 9 -5 0z"/>
<path d="M240 1941 c0 -6 4 -13 10 -16 6 -3 7 1 4 9 -7 18 -14 21 -14 7z"/>
<path d="M230 1904 c0 -8 5 -12 10 -9 6 4 8 11 5 16 -9 14 -15 11 -15 -7z"/>
<path d="M220 1840 c0 -18 4 -29 10 -25 6 3 10 15 10 25 0 10 -4 22 -10 25 -6
4 -10 -7 -10 -25z"/>
<path d="M227 1753 c-4 -3 -7 -11 -7 -17 0 -6 5 -5 12 2 6 6 9 14 7 17 -3 3
-9 2 -12 -2z"/>
<path d="M220 1694 c-24 -48 -24 -50 -1 -21 13 15 21 32 19 38 -2 6 -10 -2
-18 -17z"/>
<path d="M2663 1655 c0 -33 2 -45 4 -27 2 18 2 45 0 60 -2 15 -4 0 -4 -33z"/>
<path d="M202 1609 c-1 -16 -1 -29 2 -29 7 0 13 50 7 55 -4 2 -8 -10 -9 -26z"/>
<path d="M2650 1575 c0 -8 2 -15 4 -15 2 0 6 7 10 15 3 8 1 15 -4 15 -6 0 -10
-7 -10 -15z"/>
<path d="M215 1513 c-8 -27 -9 -91 -4 -183 1 -25 5 11 9 80 3 69 5 126 4 128
-1 2 -5 -10 -9 -25z"/>
<path d="M241 1174 c0 -11 3 -14 6 -6 3 7 2 16 -1 19 -3 4 -6 -2 -5 -13z"/>
<path d="M276 1062 c5 -40 22 -82 33 -82 20 0 21 20 1 37 -20 18 -28 39 -10
28 6 -4 5 5 -2 19 -15 34 -26 33 -22 -2z"/>
<path d="M2495 1019 c-4 -6 -5 -12 -2 -15 2 -3 7 2 10 11 7 17 1 20 -8 4z"/>
<path d="M310 963 c0 -4 32 -78 55 -128 9 -18 15 -23 15 -13 0 9 -5 20 -10 23
-6 4 -8 10 -6 14 3 4 -4 22 -15 40 -11 18 -17 41 -14 50 3 12 0 18 -10 18 -8
0 -15 -2 -15 -4z"/>
<path d="M281 930 c14 -31 19 -36 19 -24 0 6 -7 19 -16 30 -14 18 -14 18 -3
-6z"/>
<path d="M368 924 c-4 -5 4 -21 17 -37 25 -28 35 -33 35 -18 0 16 -46 65 -52
55z"/>
<path d="M2446 918 c3 -5 10 -6 15 -3 13 9 11 12 -6 12 -8 0 -12 -4 -9 -9z"/>
<path d="M421 822 c28 -36 46 -45 55 -30 4 6 3 8 -4 4 -6 -3 -13 -2 -16 3 -4
5 -1 11 6 14 7 2 5 3 -4 2 -10 -2 -18 1 -18 6 0 4 -10 14 -22 20 -21 11 -21
11 3 -19z"/>
<path d="M2410 825 c-7 -8 -16 -12 -21 -9 -5 3 -6 -2 -3 -11 4 -9 7 -15 8 -13
1 2 10 13 20 26 11 12 17 22 14 22 -3 0 -11 -7 -18 -15z"/>
<path d="M397 778 c20 -22 33 -23 33 -3 0 9 -6 12 -17 8 -10 -4 -14 -2 -10 4
3 5 0 10 -8 10 -13 0 -12 -4 2 -19z"/>
<path d="M2355 789 c-4 -6 -5 -12 -2 -15 2 -3 7 2 10 11 7 17 1 20 -8 4z"/>
<path d="M476 754 c-3 -8 -2 -12 4 -9 6 3 33 -15 61 -42 50 -48 85 -72 104
-73 5 0 -2 8 -15 17 -14 9 -29 23 -35 30 -5 7 -25 24 -44 38 -19 14 -31 25
-26 25 10 0 -26 29 -36 30 -4 0 -10 -7 -13 -16z"/>
<path d="M2330 719 c0 -5 5 -7 10 -4 6 3 10 8 10 11 0 2 -4 4 -10 4 -5 0 -10
-5 -10 -11z"/>
<path d="M435 700 c-3 -5 3 -10 15 -10 12 0 18 5 15 10 -3 6 -10 10 -15 10 -5
0 -12 -4 -15 -10z"/>
<path d="M2292 679 c-19 -30 -11 -32 11 -3 10 13 14 24 10 24 -5 0 -14 -9 -21
-21z"/>
<path d="M2185 644 c-16 -8 -41 -24 -55 -35 l-25 -20 34 16 c49 25 97 55 86
55 -5 0 -23 -7 -40 -16z"/>
<path d="M2256 633 c-6 -14 -5 -15 5 -6 7 7 10 15 7 18 -3 3 -9 -2 -12 -12z"/>
<path d="M535 620 c3 -5 11 -10 16 -10 6 0 7 5 4 10 -3 6 -11 10 -16 10 -6 0
-7 -4 -4 -10z"/>
<path d="M610 621 c0 -5 11 -16 25 -25 31 -20 33 -10 3 15 -24 21 -28 23 -28
10z"/>
<path d="M698 567 c12 -7 19 -16 16 -20 -4 -4 -2 -7 4 -7 6 0 26 -13 45 -29
23 -21 37 -27 48 -20 12 7 12 9 -2 9 -9 0 -37 18 -62 40 -25 22 -51 40 -59 40
-7 -1 -3 -6 10 -13z"/>
<path d="M2130 549 c0 -5 5 -7 10 -4 6 3 10 8 10 11 0 2 -4 4 -10 4 -5 0 -10
-5 -10 -11z"/>
<path d="M630 530 c0 -5 5 -10 10 -10 6 0 10 5 10 10 0 6 -4 10 -10 10 -5 0
-10 -4 -10 -10z"/>
<path d="M704 521 c3 -5 16 -11 28 -14 22 -6 22 -5 4 8 -22 17 -40 20 -32 6z"/>
<path d="M2030 520 c-8 -5 -10 -10 -5 -10 6 0 17 5 25 10 8 5 11 10 5 10 -5 0
-17 -5 -25 -10z"/>
<path d="M828 448 c5 -5 16 -8 23 -6 8 3 3 7 -10 11 -17 4 -21 3 -13 -5z"/>
<path d="M2005 420 c-3 -6 1 -7 9 -4 18 7 21 14 7 14 -6 0 -13 -4 -16 -10z"/>
<path d="M905 410 c-3 -5 -1 -10 4 -10 6 0 11 5 11 10 0 6 -2 10 -4 10 -3 0
-8 -4 -11 -10z"/>
<path d="M930 416 c0 -5 60 -40 83 -49 27 -10 20 -1 -15 20 -36 21 -68 34 -68
29z"/>
<path d="M1226 383 c-3 -4 3 -11 13 -17 10 -6 28 -17 40 -24 21 -12 21 -12 9
7 -13 22 -53 43 -62 34z"/>
<path d="M1349 374 c26 -11 37 -12 45 -3 8 9 7 10 -6 6 -10 -3 -20 -2 -23 3
-4 6 -16 10 -28 10 -17 -1 -15 -4 12 -16z"/>
<path d="M1480 380 c-8 -5 -12 -12 -9 -15 4 -3 12 1 19 10 14 17 11 19 -10 5z"/>
<path d="M1733 363 c-12 -2 -24 -10 -27 -18 -4 -12 0 -12 22 -3 30 13 52 29
37 27 -6 -1 -20 -4 -32 -6z"/>
<path d="M1067 349 c7 -7 15 -10 18 -7 3 3 -2 9 -12 12 -14 6 -15 5 -6 -5z"/>
<path d="M1158 343 c7 -3 16 -2 19 1 4 3 -2 6 -13 5 -11 0 -14 -3 -6 -6z"/>
<path d="M1435 340 c-3 -6 1 -7 9 -4 18 7 21 14 7 14 -6 0 -13 -4 -16 -10z"/>
<path d="M1646 335 c4 -8 7 -15 9 -15 2 0 5 7 9 15 3 9 0 15 -9 15 -9 0 -12
-6 -9 -15z"/>
<path d="M1391 318 c-13 -21 -13 -22 2 -10 9 8 21 11 26 7 7 -3 8 0 5 9 -8 22
-17 20 -33 -6z"/>
<path d="M1324 318 c-5 -7 -2 -9 9 -5 9 3 17 1 20 -6 2 -6 6 -4 10 6 5 12 1
17 -13 17 -10 0 -22 -5 -26 -12z"/>
<path d="M1555 290 c3 -5 11 -10 16 -10 6 0 7 5 4 10 -3 6 -11 10 -16 10 -6 0
-7 -4 -4 -10z"/>
</g>
</svg>
